#!OML:ASF F:\VICON\USERDATA\INSTALL\rory3\rory3.ASF
:FULLY-SPECIFIED
:DEGREES
952
root 0.581089 18.1279 3.38997 -2.1033 -2.11397 -358.371
lowerback 8.36558 0.351143 -2.63892
upperback -0.333251 0.21197 0.129461
thorax -5.05439 0.175148 1.59278
lowerneck -21.5621 -5.34465 -12.4092
upperneck 30.5406 -6.32585 9.11234
head 14.9707 -2.90953 4.71329
rclavicle -7.92499e-015 -7.45443e-015
rhumerus -34.2249 -9.87432 -84.2068
rradius 28.5154
rwrist 8.53151
rhand -14.742 8.56781
rfingers 7.12502
rthumb 11.4136 -21.1015
lclavicle -7.92499e-015 -7.45443e-015
lhumerus -34.4626 3.92912 86.1045
lradius 30.4372
lwrist -7.3092
lhand -17.3925 24.412
lfingers 7.12502
lthumb 8.85655 54.2061
rfemur -4.90958 2.14318 19.2446
rtibia 24.0465
rfoot -12.9992 -1.8695
rtoes -1.04219
lfemur 2.80069 -3.47063 -22.904
ltibia 9.89703
lfoot -5.44816 -0.462939
ltoes -7.11314
953
root 0.581233 18.1277 3.39102 -2.1277 -2.04194 -358.51
lowerback 8.33602 0.318494 -2.44992
upperback -0.265451 0.190431 0.158767
thorax -4.96493 0.158232 1.51973
lowerneck -21.6384 -5.37012 -12.4298
upperneck 30.5392 -6.37815 9.2029
head 14.9997 -2.92007 4.74558
rclavicle -5.57839e-015 2.48481e-015
rhumerus -34.0623 -10.0603 -84.1303
rradius 28.3704
rwrist 8.53784
rhand -14.5104 8.69542
rfingers 7.12502
rthumb 11.637 -20.9614
lclavicle -5.57839e-015 2.48481e-015
lhumerus -34.3258 4.15189 86.0416
lradius 30.324
lwrist -7.64163
lhand -17.1544 24.4907
lfingers 7.12502
lthumb 9.08633 54.2749
rfemur -4.83437 2.14059 19.4031
rtibia 23.9913
rfoot -12.9276 -1.92949
rtoes -1.18712
lfemur 2.7794 -3.59235 -22.7608
ltibia 10.0059
lfoot -5.45082 -0.415604
ltoes -6.5783
954
root 0.58033 18.1288 3.39246 -2.13939 -2.00248 -358.605
lowerback 8.32996 0.293106 -2.33335
upperback -0.228504 0.170237 0.189279
thorax -4.92155 0.14484 1.48843
lowerneck -21.6094 -5.37347 -12.3195
upperneck 30.4196 -6.36765 9.0526
head 14.9253 -2.92149 4.65749
rclavicle -2.68981e-015 5.1684e-015
rhumerus -33.9709 -10.0869 -84.1082
rradius 28.3044
rwrist 8.48571
rhand -14.3822 8.75577
rfingers 7.12502
rthumb 11.7605 -20.8941
lclavicle -2.68981e-015 5.1684e-015
lhumerus -34.1776 4.29787 86.0216
lradius 30.1493
lwrist -7.77004
lhand -16.5094 24.9746
lfingers 7.12502
lthumb 9.70872 54.7308
rfemur -4.77953 2.1209 19.5175
rtibia 23.9378
rfoot -12.8583 -1.97043
rtoes -1.19893
lfemur 2.73709 -3.60878 -22.6561
ltibia 10.1277
lfoot -5.4911 -0.412604
ltoes -6.47854
955
root 0.578897 18.129 3.39222 -2.10791 -1.95981 -358.605
lowerback 8.31876 0.268238 -2.34901
upperback -0.235094 0.137823 0.229717
thorax -4.9209 0.129785 1.54337
lowerneck -21.529 -5.36704 -12.3482
upperneck 30.2903 -6.32879 8.99857
head 14.8419 -2.9154 4.64102
rclavicle 7.0289e-015 7.45443e-015
rhumerus -33.912 -9.84021 -84.147
rradius 28.2594
rwrist 8.33539
rhand -14.4925 8.76869
rfingers 7.12502
rthumb 11.6542 -20.8872
lclavicle 7.0289e-015 7.45443e-015
lhumerus -34.1646 4.25862 86.1576
lradius 30.0679
lwrist -7.34288
lhand -15.8455 25.73
lfingers 7.12502
lthumb 10.3492 55.4554
rfemur -4.79629 2.08487 19.5215
rtibia 23.9077
rfoot -12.855 -1.99072
rtoes -1.2437
lfemur 2.66278 -3.56291 -22.6452
ltibia 10.2043
lfoot -5.55121 -0.475209
ltoes -6.51849
956
root 0.578504 18.1284 3.3936 -2.07511 -1.95615 -358.53
lowerback 8.32638 0.270735 -2.40514
upperback -0.286248 0.135233 0.237462
thorax -4.97881 0.131216 1.58336
lowerneck -21.5604 -5.36144 -12.4209
upperneck 30.3129 -6.29876 9.02509
head 14.8592 -2.90727 4.67205
rclavicle -2.08413e-015 5.46658e-015
rhumerus -33.9452 -9.63574 -84.1763
rradius 28.2089
rwrist 8.32922
rhand -14.8012 8.65845
rfingers 7.12502
rthumb 11.3564 -21.0141
lclavicle -2.08413e-015 5.46658e-015
lhumerus -34.2769 4.391 86.1465
lradius 30.15
lwrist -8.04822
lhand -15.9351 25.4163
lfingers 7.12502
lthumb 10.2628 55.1459
rfemur -4.83547 2.08106 19.4313
rtibia 23.9206
rfoot -12.8551 -1.97027
rtoes -1.01322
lfemur 2.62655 -3.55539 -22.7262
ltibia 10.209
lfoot -5.56832 -0.483271
ltoes -6.57841
957
root 0.578259 18.1287 3.39564 -2.04889 -1.94987 -358.482
lowerback 8.2809 0.28943 -2.41938
upperback -0.287627 0.159487 0.228415
thorax -4.95574 0.143177 1.57894
lowerneck -21.6798 -5.38022 -12.4362
upperneck 30.397 -6.315 9.03801
head 14.9279 -2.91283 4.68069
rclavicle -5.88589e-015 5.96354e-015
rhumerus -33.916 -9.6864 -84.1477
rradius 28.1356
rwrist 8.4208
rhand -14.9632 8.6222
rfingers 7.12502
rthumb 11.2003 -21.0588
lclavicle -5.88589e-015 5.96354e-015
lhumerus -34.3058 4.34245 86.2033
lradius 30.2351
lwrist -8.47752
lhand -17.6596 23.2175
lfingers 7.12502
lthumb 8.59887 53.0224
rfemur -4.88398 2.08503 19.3717
rtibia 23.9752
rfoot -12.8884 -1.96364
rtoes -0.630977
lfemur 2.6451 -3.56245 -22.7805
ltibia 10.1175
lfoot -5.5196 -0.459918
ltoes -6.65984
958
root 0.577865 18.128 3.39679 -2.0461 -1.91694 -358.454
lowerback 8.24461 0.286762 -2.43234
upperback -0.263468 0.155939 0.228555
thorax -4.90991 0.140957 1.58683
lowerneck -21.7182 -5.37845 -12.4658
upperneck 30.4301 -6.30595 9.06145
head 14.9526 -2.90889 4.6993
rclavicle -1.21134e-016 0
rhumerus -33.8771 -9.73286 -84.1094
rradius 28.1034
rwrist 8.38763
rhand -15.0107 8.64971
rfingers 7.12502
rthumb 11.1544 -21.0338
lclavicle -1.21134e-016 0
lhumerus -34.2912 4.25319 86.3059
lradius 30.3014
lwrist -8.51907
lhand -16.8219 24.5997
lfingers 7.12502
lthumb 9.40717 54.3697
rfemur -4.89856 2.0302 19.3375
rtibia 24.0271
rfoot -12.9647 -1.96645
rtoes -0.8557
lfemur 2.68835 -3.51182 -22.8068
ltibia 10.0038
lfoot -5.45138 -0.505505
ltoes -6.78778
